<?xml version="1.0" encoding="UTF-8" standalone="no"?>
<!-- Generator: Adobe Illustrator 19.0.0, SVG Export Plug-In . SVG Version: 6.00 Build 0)  -->

<svg
   version="1.1"
   id="Layer_1"
   x="0px"
   y="0px"
   viewBox="0 0 512.002 512.002"
   style="enable-background:new 0 0 512.002 512.002;"
   xml:space="preserve"
   sodipodi:docname="favicon.svg"
   inkscape:version="1.1.1 (3bf5ae0d25, 2021-09-20, custom)"
   xmlns:inkscape="http://www.inkscape.org/namespaces/inkscape"
   xmlns:sodipodi="http://sodipodi.sourceforge.net/DTD/sodipodi-0.dtd"
   xmlns="http://www.w3.org/2000/svg"
   xmlns:svg="http://www.w3.org/2000/svg"><defs
   id="defs137" /><sodipodi:namedview
   id="namedview135"
   pagecolor="#ffffff"
   bordercolor="#666666"
   borderopacity="1.0"
   inkscape:pageshadow="2"
   inkscape:pageopacity="0.0"
   inkscape:pagecheckerboard="true"
   showgrid="false"
   inkscape:zoom="1.6347592"
   inkscape:cx="51.077858"
   inkscape:cy="256.001"
   inkscape:window-width="1914"
   inkscape:window-height="1046"
   inkscape:window-x="0"
   inkscape:window-y="0"
   inkscape:window-maximized="1"
   inkscape:current-layer="Layer_1"><inkscape:grid
     type="xygrid"
     id="grid554" /></sodipodi:namedview>
<g
   id="g102">
	<g
   id="g100">
		<path
   d="M458.009,0c-23.554,0-42.718,19.163-42.718,42.718c0,5.505,1.057,10.762,2.962,15.598    c-16.547,19.084-27.307,44.813-32.257,64.584c-6.299-1.452-12.847-2.245-19.58-2.245s-13.281,0.793-19.579,2.245    c-4.95-19.771-15.71-45.499-32.257-64.584c1.905-4.836,2.962-10.094,2.962-15.598C317.541,19.163,298.378,0,274.824,0    s-42.718,19.163-42.718,42.718s19.163,42.718,42.718,42.718c6.501,0,12.665-1.466,18.188-4.075    c13.436,16.781,21.835,40.309,24.617,54.272c-17.841,12.103-30.953,30.65-36.02,52.263c-22.048-9.199-45.925-13.995-70.186-13.995    c-84.859,0-157.485,57.899-173.969,138.14c-6.58,10.373-11.673,22.026-15.086,34.624c-6.916,9.555-11.093,21.862-11.093,35.284    c0,12.749,3.773,24.488,10.078,33.822c11.966,50.148,50.244,84.904,94.042,84.904c5.287,0,10.502-0.5,15.613-1.47    c11.385,5.862,27.531,12.799,50.912,12.799h142.928c48.443,0,82.308-10.371,103.53-31.704    c25.509-25.643,25.327-60.399,25.207-83.397c-0.008-1.563-0.017-3.091-0.017-4.577l-0.027-184.545    c0-29.976-15.22-56.463-38.335-72.145c2.781-13.963,11.18-37.491,24.617-54.272c5.521,2.609,11.685,4.075,18.188,4.075    c23.554,0,42.718-19.163,42.718-42.718S481.563,0,458.009,0z M274.824,54.088c-6.269,0-11.371-5.101-11.371-11.371    s5.101-11.371,11.371-11.371s11.371,5.101,11.371,11.371S281.094,54.088,274.824,54.088z M42.622,381.945    c0-12.58,7.5-23.616,16.049-23.616c8.548,0,16.049,11.036,16.049,23.616c0,12.581-7.5,23.617-16.049,23.617    C50.122,405.561,42.622,394.525,42.622,381.945z M115.395,469.323c-20.682,0.001-39.709-12.548-52.079-32.682    c23.962-2.716,42.751-26.207,42.751-54.696c0-27.861-17.974-50.932-41.179-54.475c12.453-18.731,30.88-30.365,50.507-30.365    c36.672,0,66.506,38.629,66.506,86.109S152.066,469.323,115.395,469.323z M263.225,458.188    c-14.828,14.908-42.184,22.465-81.307,22.465c-3.909,0-7.492-0.269-10.828-0.727c5.204-4.333,10.098-9.306,14.609-14.893    c17.764-22.003,27.548-51.059,27.548-81.818s-9.783-59.815-27.549-81.818c-18.555-22.981-43.523-35.638-70.304-35.638    c-9.388,0-18.546,1.562-27.306,4.587c26.115-39.561,71.99-65.101,123.335-65.101c23.753,0,47.031,5.547,67.869,16.085v170.992    c0,1.539,0.008,3.12,0.017,4.741C279.419,418.025,279.543,441.785,263.225,458.188z M422.194,207.779l0.027,184.545    c0,1.538,0.008,3.119,0.017,4.739c0.11,20.964,0.234,44.723-16.084,61.125c-14.828,14.908-42.184,22.465-81.306,22.465h-39.756    c0.119-0.119,0.238-0.238,0.357-0.357c25.509-25.643,25.327-60.399,25.207-83.398c-0.008-1.563-0.017-3.091-0.017-4.577V207.777    c0-30.756,25.021-55.777,55.777-55.777C397.173,152,422.194,177.021,422.194,207.779z M458.009,54.088    c-6.269,0-11.371-5.101-11.371-11.371s5.101-11.371,11.371-11.371c6.269,0,11.371,5.101,11.371,11.371    S464.278,54.088,458.009,54.088z"
   id="path98" />
	</g>
</g>
<g
   id="g104">
</g>
<g
   id="g106">
</g>
<g
   id="g108">
</g>
<g
   id="g110">
</g>
<g
   id="g112">
</g>
<g
   id="g114">
</g>
<g
   id="g116">
</g>
<g
   id="g118">
</g>
<g
   id="g120">
</g>
<g
   id="g122">
</g>
<g
   id="g124">
</g>
<g
   id="g126">
</g>
<g
   id="g128">
</g>
<g
   id="g130">
</g>
<g
   id="g132">
</g>
<path
   style="fill:#ffffff;stroke-width:0.611711"
   d="m 174.74004,480.04824 -2.65611,-0.23691 5.83708,-5.78984 c 14.97069,-14.84955 25.58412,-33.89253 31.24775,-56.0658 5.50464,-21.5508 5.6372,-46.15564 0.36667,-68.05707 -11.33686,-47.10977 -46.98601,-81.39004 -87.34618,-83.99219 -9.29507,-0.59928 -19.432,0.14064 -26.456499,1.93114 -3.196189,0.81468 -5.918905,1.38211 -6.05048,1.26095 -0.564533,-0.51984 9.117552,-12.51204 15.117879,-18.72494 21.74799,-22.51849 49.34247,-36.94467 81.87375,-42.80296 6.95522,-1.25251 9.76791,-1.41367 24.67221,-1.41367 14.9043,0 17.71698,0.16116 24.6722,1.41367 14.07974,2.5355 30.15737,7.61473 40.3543,12.74868 l 2.93784,1.47915 -0.22245,98.61175 c -0.24421,108.26058 -0.10576,104.16403 -3.93036,116.29467 -6.57313,20.84832 -21.33264,32.73675 -48.63032,39.17053 -14.33123,3.37772 -38.6934,5.34074 -51.78728,4.17284 z"
   id="path293" /><path
   style="fill:#ffffff;stroke-width:0.611711"
   d="m 287.8777,478.26916 c 8.76682,-9.35972 15.17254,-21.5639 18.89385,-35.99656 4.07191,-15.79247 3.86538,-9.35416 4.24848,-132.44104 l 0.34745,-111.63724 1.71177,-5.47521 c 7.65896,-24.49768 28.51105,-40.2216 53.28418,-40.17996 7.79463,0.0131 13.76461,1.12225 20.45401,3.80009 18.03671,7.22032 31.35481,23.85503 34.33121,42.88073 0.51362,3.28312 0.64174,33.81006 0.47963,114.28185 -0.21974,109.08044 -0.22969,109.8403 -1.5127,115.61336 -1.85285,8.33713 -4.7666,15.89556 -8.08535,20.97383 -10.42446,15.95128 -29.28383,24.94171 -60.65654,28.91553 -5.50409,0.69717 -15.58357,1.05256 -36.64845,1.29218 l -29.05626,0.33053 z"
   id="path332" /><path
   style="fill:#ffffff;stroke-width:0.611711"
   d="m 105.52013,467.99966 c -14.5868,-3.0764 -28.213155,-12.43056 -38.331855,-26.31387 -1.459028,-2.00186 -2.652778,-3.9621 -2.652778,-4.3561 0,-0.394 1.307532,-0.89625 2.905627,-1.1161 1.598094,-0.21986 4.502807,-1.05625 6.454917,-1.85864 14.570934,-5.98925 25.847051,-19.38973 30.403329,-36.13117 2.01648,-7.40931 2.35861,-21.25267 0.72116,-29.17988 -1.28944,-6.24244 -4.14355,-13.53701 -7.556318,-19.31254 -2.973672,-5.03244 -11.015994,-13.20062 -16.059769,-16.3111 -4.309924,-2.65792 -12.198283,-5.84909 -14.458559,-5.84909 -0.652831,0 -1.186965,-0.22585 -1.186965,-0.50189 0,-0.27605 1.876906,-2.82229 4.170903,-5.65833 8.096377,-10.00944 18.361352,-17.36869 29.61849,-21.23432 5.435998,-1.86669 7.261848,-2.19438 13.618198,-2.44404 8.68061,-0.34096 14.37115,0.6357 22.12666,3.79759 17.91058,7.30207 33.6618,25.81928 40.83375,48.00435 4.21719,13.04506 4.88969,17.6803 4.88969,33.70233 0,12.63987 -0.16732,15.15057 -1.38605,20.79817 -2.85322,13.22174 -7.77054,25.35629 -14.25342,35.17338 -3.88025,5.87588 -12.04932,14.50599 -17.68759,18.68581 -4.67883,3.46857 -13.8235,7.96303 -19.23027,9.45139 -5.01011,1.37917 -17.77525,1.74313 -22.93915,0.65405 z"
   id="path371" /><path
   style="fill:#ffffff;stroke-width:0.611711"
   d="m 54.442268,404.11721 c -6.51978,-2.96934 -11.324633,-12.34243 -11.309391,-22.06187 0.01207,-7.69549 2.584746,-14.69372 7.02786,-19.11729 6.333127,-6.30527 13.003676,-5.45016 19.064173,2.44387 5.805729,7.56218 6.679222,20.99437 1.966045,30.23296 -2.762573,5.41509 -8.209378,9.6167 -12.466711,9.6167 -1.009323,0 -2.936212,-0.50147 -4.281976,-1.11437 z"
   id="path410" /><path
   style="fill:#ffffff;stroke-width:0.611711"
   d="m 269.76449,52.415869 c -3.99308,-2.557246 -5.81125,-5.675354 -5.81125,-9.966155 0,-6.857241 7.40649,-12.432893 13.73917,-10.342923 4.49847,1.48463 8.25555,6.360079 8.25555,10.71297 0,2.829508 -2.04671,6.687717 -4.56781,8.610649 -3.0171,2.301255 -8.79557,2.791494 -11.61566,0.985459 z"
   id="path449" /><path
   style="fill:#ffffff;stroke-width:0.611711"
   d="m 453.27912,52.56101 c -2.75815,-1.438141 -4.03366,-2.758487 -5.27386,-5.459273 -1.42143,-3.095435 -1.42161,-5.461032 -6.6e-4,-8.589259 2.07876,-4.576376 7.15629,-7.523447 11.58306,-6.722978 8.69324,1.571949 12.30446,11.972971 6.34418,18.272475 -0.90381,0.955249 -2.38661,2.125146 -3.29512,2.599771 -2.18958,1.143895 -7.07136,1.091342 -9.3576,-0.100736 z"
   id="path488" /></svg>
